# xmcd
# 
# Track frame offsets:
#     150
#     49108
#     96539
#     144094
#     190184
#     241714
#     287057
# 
# Disc length: 4414
# 
# Revision: 0
# Processed by: cddbd v1.5.2PL0 Copyright (c) Steve Scherf et al.
# Submitted via: fre:ac v1.0.17
# 
DISCID=5c113c07
DTITLE=Chris Mulzer - Vorwärts in ein neues Leben
DYEAR=2005
DGENRE=Speech
TTITLE0=Vorwärts in ein neues Leben 08
TTITLE1=Vorwärts in ein neues Leben 09
TTITLE2=Vorwärts in ein neues Leben 10
TTITLE3=Vorwärts in ein neues Leben 11
TTITLE4=Vorwärts in ein neues Leben 12
TTITLE5=Vorwärts in ein neues Leben 13
TTITLE6=Vorwärts in ein neues Leben 14
EXTD=
EXTT0=
EXTT1=
EXTT2=
EXTT3=
EXTT4=
EXTT5=
EXTT6=
PLAYORDER=
